<svg id="katman_1" data-name="katman 1" xmlns="http://www.w3.org/2000/svg" viewBox="0 0 957.2 141.6"><defs><style>.cls-1{fill:#575656;}.cls-2{fill:#8c193e;}.cls-3{fill:#8e2a46;fill-rule:evenodd;}</style></defs><title>international-research-center-for-ai-and-iot</title><path class="cls-1" d="M633.78,67.71V54l-6.5-19.37h5.51l3.09,10.32a16.26,16.26,0,0,1,.4,1.94c.11.77.2,1.66.26,2.67.11-1.14.22-2.1.32-2.88a10,10,0,0,1,.37-1.77l3.11-10.28h5.46L639.3,54V67.71Zm-24.59,0V39.63h-5.47v-5h16.5v5h-5.47V67.71Zm-21.39,0V34.6h5.52V67.71Zm-28.66-8.66,5.18-.76a9.07,9.07,0,0,0,1.33,3.78A2.81,2.81,0,0,0,568,63.31a3.07,3.07,0,0,0,2.34-.9,3.23,3.23,0,0,0,.87-2.4q0-2.64-5.91-7.93c-.61-.55-1.06-1-1.37-1.26a13,13,0,0,1-3.05-4,10.46,10.46,0,0,1-1.07-4.59,7.84,7.84,0,0,1,2.32-5.83,8.15,8.15,0,0,1,5.94-2.28,7.52,7.52,0,0,1,5.47,2,9.57,9.57,0,0,1,2.57,5.81l-5,.77a6.25,6.25,0,0,0-1.08-3,2.54,2.54,0,0,0-2.08-1,2.66,2.66,0,0,0-2.11.92,3.53,3.53,0,0,0-.8,2.4,4.9,4.9,0,0,0,.73,2.55A19,19,0,0,0,569,48c.23.22.59.55,1,1q6.5,5.93,6.49,10.69A8.18,8.18,0,0,1,568,68.25a8.07,8.07,0,0,1-6.09-2.41A11.2,11.2,0,0,1,559.14,59.05Zm-10.22,8.66h-5.61l-4-13.76-1.11.09c-.41,0-.8,0-1.19,0h-.77V67.71h-5.57V34.6H538a20.43,20.43,0,0,1,4.8.41,7.19,7.19,0,0,1,5.2,4.65,12.49,12.49,0,0,1,.85,4.67,11.18,11.18,0,0,1-1.14,5.21,8.56,8.56,0,0,1-3.39,3.52ZM536.26,49.48a2.76,2.76,0,0,0,.51.05l.75,0c2.06,0,3.53-.41,4.4-1.25s1.3-2.24,1.3-4.2A5.15,5.15,0,0,0,542,40.24a5.77,5.77,0,0,0-4.07-1.2c-.32,0-.81,0-1.48.06l-.15,0Zm-32,18.23V34.6h15.15v5.16h-9.63v8.29h7.38v5.21h-7.38V62.5H520v5.21Zm-22.43,0L475.43,34.6h5.39l3.26,17.84c.18,1,.34,2.21.47,3.61s.23,2.94.29,4.62c.09-1.74.19-3.27.33-4.59s.29-2.5.48-3.55l3.27-17.93h5.24l-6.28,33.11Zm-22.07,0V34.6h5.52V67.71Zm-29.84,0V34.6H435l6.44,17.67c.26.74.52,1.61.77,2.63s.49,2.13.73,3.34h.18q-.36-2.09-.54-3.78a26,26,0,0,1-.19-2.92V34.6h4.84V67.71h-4.62L435.7,48.64a30.57,30.57,0,0,1-.91-2.92,28,28,0,0,1-.59-2.92H434a31.15,31.15,0,0,1,.56,3.63c.12,1.23.18,2.52.18,3.85V67.71ZM417.49,57.37c0,3.81-.7,6.59-2.09,8.36s-3.59,2.65-6.6,2.65-5.18-.88-6.56-2.64-2.08-4.55-2.08-8.37V34.6h5.65V58.34a7.79,7.79,0,0,0,.67,3.81,2.47,2.47,0,0,0,2.27,1.07,2.58,2.58,0,0,0,2.39-1.14,8.37,8.37,0,0,0,.69-4V34.6h5.66ZM369.14,67.71V39.63h-5.46v-5h16.49v5h-5.46V67.71Zm-31.83-8.66,5.19-.76a8.94,8.94,0,0,0,1.32,3.78,2.82,2.82,0,0,0,2.39,1.24,3.11,3.11,0,0,0,2.35-.9,3.27,3.27,0,0,0,.86-2.4c0-1.76-2-4.4-5.91-7.93-.61-.55-1.06-1-1.37-1.26a13,13,0,0,1-3.05-4A10.6,10.6,0,0,1,338,42.21a7.81,7.81,0,0,1,2.33-5.83,8.12,8.12,0,0,1,5.93-2.28,7.5,7.5,0,0,1,5.47,2,9.57,9.57,0,0,1,2.57,5.81l-5,.77a6.15,6.15,0,0,0-1.08-3,2.53,2.53,0,0,0-2.08-1,2.64,2.64,0,0,0-2.1.92,3.48,3.48,0,0,0-.8,2.4,4.9,4.9,0,0,0,.73,2.55,18.53,18.53,0,0,0,3.21,3.5l1.06,1q6.48,5.93,6.49,10.69a8.18,8.18,0,0,1-8.52,8.52,8.1,8.1,0,0,1-6.1-2.41A11.2,11.2,0,0,1,337.31,59.05Zm-27.46,8.66,6-33.11h7l5.94,33.11h-5.43l-.95-7.16h-6.15l-1.09,7.16Zm7.29-12.32h4.48L319.3,40ZM285.8,67.71V34.6H301v5.16h-9.63v8.29h7.38v5.21h-7.38V62.5h10.22v5.21Zm-21.33,0h-5.61l-4-13.76-1.11.09c-.41,0-.8,0-1.19,0h-.77V67.71h-5.57V34.6h7.34a20.43,20.43,0,0,1,4.8.41,7.19,7.19,0,0,1,5.2,4.65,12.49,12.49,0,0,1,.85,4.67,11.18,11.18,0,0,1-1.14,5.21,8.62,8.62,0,0,1-3.39,3.52ZM251.81,49.48a2.76,2.76,0,0,0,.51.05l.74,0c2.07,0,3.54-.41,4.41-1.25s1.3-2.24,1.3-4.2a5.15,5.15,0,0,0-1.26-3.86,5.77,5.77,0,0,0-4.07-1.2c-.32,0-.81,0-1.48.06l-.15,0ZM217.39,67.71l6-33.11h7l5.94,33.11h-5.43L230,60.55h-6.15l-1.09,7.16Zm7.28-12.32h4.48L226.84,40ZM193.34,67.71V34.6h15.15v5.16h-9.63v8.29h7.38v5.21h-7.38V62.5h10.22v5.21Zm-29.71,0V34.6h5.06l6.44,17.67c.26.74.52,1.61.77,2.63s.49,2.13.73,3.34h.18c-.24-1.39-.42-2.65-.55-3.78a28.32,28.32,0,0,1-.18-2.92V34.6h4.84V67.71H176.3l-6.87-19.07a30.57,30.57,0,0,1-.91-2.92c-.25-1-.45-1.95-.6-2.92h-.18a31.15,31.15,0,0,1,.56,3.63c.11,1.23.18,2.52.18,3.85V67.71Z"></path><path class="cls-2" d="M946.43,116.39V86.77h-6.49V84H956.2v2.78h-6.5v29.62ZM929,86.37q-2.81,0-4.12,3.15t-1.31,9.89q0,7.74,1.28,11.15c.85,2.27,2.24,3.41,4.15,3.41s3.24-1.1,4.1-3.29,1.31-5.69,1.31-10.5-.43-8.28-1.31-10.5S930.84,86.37,929,86.37ZM929,117a7.17,7.17,0,0,1-6.67-4.28c-1.5-2.86-2.26-7-2.26-12.57s.76-9.73,2.26-12.56a7.36,7.36,0,0,1,13.34,0q2.28,4.26,2.28,12.55c0,5.53-.76,9.71-2.28,12.57A7.2,7.2,0,0,1,929,117Zm-17.69-.63V84h3.32v32.4Zm-31.68,0V84h6q5.65,0,8.2,3.84t2.56,12.31q0,8.56-2.56,12.41t-8.2,3.84ZM883,86.86v26.48l1.13.09c.25,0,.47,0,.66,0q4.59,0,6.45-2.92T893,100q0-7.47-1.84-10.38c-1.22-1.93-3.36-2.9-6.4-2.9l-.69,0ZM861.58,94c-.46-1.21-.88-2.44-1.29-3.69s-.8-2.5-1.18-3.79v29.88H856.2V84H861l6.69,18.37c.51,1.47,1,2.86,1.42,4.19s.84,2.63,1.21,3.89c-.09-1-.15-2-.2-3s-.07-2.39-.07-4.12V84H873v32.4h-3.27Zm-28,22.4,7-32.4h4.57l7.09,32.4h-3.5l-1.88-9.54h-8.16l-1.88,9.54Zm5.86-12.59h6.76l-3.39-17Zm-22.86,12.59V84h3.32v32.4Zm-22.69,0,7-32.4h4.57l7.09,32.4H809l-1.88-9.54H799l-1.88,9.54Zm5.86-12.59h6.76l-3.39-17Zm-34.55,12.59V84h5.9q5.26,0,7.87,2.12c1.72,1.4,2.59,3.53,2.59,6.39a8.83,8.83,0,0,1-1.32,5,7,7,0,0,1-3.8,2.79l5.3,16.13h-3.59L773.24,101l-2.08.06-1.38,0h-1.29v15.32Zm3.32-18.24h2.82a7.61,7.61,0,0,0,5-1.41A5.21,5.21,0,0,0,778,92.51a5.27,5.27,0,0,0-1.65-4.24,7.62,7.62,0,0,0-5-1.41h-2.82ZM750.92,86.37c-1.88,0-3.25,1-4.13,3.15s-1.31,5.4-1.31,9.89q0,7.74,1.28,11.15c.86,2.27,2.24,3.41,4.16,3.41s3.23-1.1,4.1-3.29,1.3-5.69,1.3-10.5-.43-8.28-1.3-10.5S752.78,86.37,750.92,86.37Zm0,30.65a7.19,7.19,0,0,1-6.68-4.28c-1.5-2.86-2.25-7-2.25-12.57s.75-9.73,2.25-12.56a7.37,7.37,0,0,1,13.35,0q2.26,4.26,2.27,12.55c0,5.53-.76,9.71-2.27,12.57S753.84,117,750.92,117Zm-25.9-.63V84H738.6v3H728.33V98.15h7.89v3h-7.89v15.28Zm-31,0V84h5.9q5.26,0,7.86,2.12c1.72,1.4,2.59,3.53,2.59,6.39a8.9,8.9,0,0,1-1.31,5,7,7,0,0,1-3.81,2.79l5.3,16.13H707L702.07,101,700,101l-1.39,0h-1.29v15.32Zm3.31-18.24h2.82a7.64,7.64,0,0,0,5-1.41,6.23,6.23,0,0,0,0-8.47,7.61,7.61,0,0,0-5-1.41h-2.82Zm-22.56,18.24V84h14.56v3H678.08V98.15h8.24v3h-8.24v12.28h11.65v3Zm-13.68,0V86.77h-6.5V84h16.27v2.78h-6.5v29.62ZM639.25,94q-.68-1.81-1.29-3.69c-.41-1.24-.8-2.5-1.18-3.79v29.88h-2.91V84h4.84l6.69,18.37c.51,1.47,1,2.86,1.42,4.19s.83,2.63,1.2,3.89c-.09-1-.15-2-.19-3s-.07-2.39-.07-4.12V84h2.91v32.4h-3.26Zm-24.67,22.4V84h14.56v3H617.9V98.15h8.24v3H617.9v12.28h11.65v3Zm-4.81-10.62v.7q0,5.06-2.21,7.8A7.56,7.56,0,0,1,601.3,117a7.39,7.39,0,0,1-6.84-4.13q-2.3-4.11-2.3-12.28,0-8.86,2.27-13.08a7.47,7.47,0,0,1,7-4.21A7.1,7.1,0,0,1,607.31,86a11.7,11.7,0,0,1,2.15,7.46h-3.23a10.84,10.84,0,0,0-1.41-5.4,3.9,3.9,0,0,0-3.43-1.86q-3.06,0-4.42,3.3c-.9,2.19-1.36,5.79-1.36,10.77s.5,8.4,1.49,10.54a5,5,0,0,0,4.82,3.22,4,4,0,0,0,3.56-2,10.42,10.42,0,0,0,1.29-5.61v-.66Zm-48.44,10.62V84h3.31V97.88h9.41V84h3.32v32.4h-3.32V101h-9.41v15.41Zm-4.81-10.62v.7q0,5.06-2.21,7.8a7.56,7.56,0,0,1-6.26,2.75,7.39,7.39,0,0,1-6.84-4.13q-2.3-4.11-2.3-12.28,0-8.86,2.26-13.08a7.49,7.49,0,0,1,7-4.21A7.1,7.1,0,0,1,554.06,86a11.7,11.7,0,0,1,2.15,7.46H553a10.84,10.84,0,0,0-1.41-5.4,3.9,3.9,0,0,0-3.43-1.86c-2,0-3.52,1.1-4.42,3.3s-1.36,5.79-1.36,10.77.49,8.4,1.49,10.54a5,5,0,0,0,4.81,3.22,4,4,0,0,0,3.57-2,10.42,10.42,0,0,0,1.29-5.61v-.66Zm-38,10.62V84h5.89c3.51,0,6.14.71,7.87,2.12s2.59,3.53,2.59,6.39a8.83,8.83,0,0,1-1.32,5,7,7,0,0,1-3.8,2.79l5.3,16.13h-3.59L526.53,101l-2.08.06-1.38,0h-1.29v15.32Zm3.31-18.24h2.82a7.64,7.64,0,0,0,5-1.41,6.23,6.23,0,0,0,0-8.47,7.62,7.62,0,0,0-5-1.41h-2.82Zm-25.92,18.24,7-32.4h4.58l7.08,32.4H511l-1.88-9.54H501l-1.89,9.54Zm5.86-12.59h6.77l-3.4-17ZM479,116.39V84h14.56v3H482.26V98.15h8.25v3h-8.25v12.28h11.65v3Zm-21.35-8.6h3.13a8,8,0,0,0,1.44,4.7,4.51,4.51,0,0,0,3.72,1.52,4.37,4.37,0,0,0,3.43-1.46,5.66,5.66,0,0,0,1.32-3.9,6.69,6.69,0,0,0-1.22-3.89,23.71,23.71,0,0,0-5-4.58,20.44,20.44,0,0,1-5.07-4.84,8.82,8.82,0,0,1-1.22-4.68,7.1,7.1,0,0,1,2.05-5.2,6.84,6.84,0,0,1,5.13-2.09,7.33,7.33,0,0,1,5.71,2.3,9.85,9.85,0,0,1,2.21,6.48h-3.05a8.26,8.26,0,0,0-1.4-4.5,4,4,0,0,0-3.33-1.5,4.24,4.24,0,0,0-3.18,1.22,4.53,4.53,0,0,0-1.18,3.29,5.35,5.35,0,0,0,.41,2,6.06,6.06,0,0,0,1.16,1.79,27.28,27.28,0,0,0,3.3,2.77q2.19,1.65,2.76,2.1a15.64,15.64,0,0,1,3.91,4.33,9.75,9.75,0,0,1,1.18,4.82,8.68,8.68,0,0,1-2.19,6.18,8.49,8.49,0,0,1-11.77-.08A10.13,10.13,0,0,1,457.6,107.79Zm-18,8.6V84h14.56v3H443V98.15h8.24v3H443v12.28h11.65v3Zm-21.52,0V84H424q5.27,0,7.86,2.12t2.59,6.39a8.9,8.9,0,0,1-1.31,5,7,7,0,0,1-3.8,2.79l5.29,16.13h-3.58L426.2,101l-2.08.06-1.38,0h-1.29v15.32Zm3.32-18.24h2.82a7.61,7.61,0,0,0,5-1.41,6.23,6.23,0,0,0,0-8.47,7.58,7.58,0,0,0-5-1.41h-2.82Zm-30.3,18.24V84h3.36V113.3h10.17v3.09Zm-22.78,0,7-32.4H380l7.09,32.4h-3.5l-1.88-9.54h-8.16l-1.88,9.54Zm5.86-12.59H381l-3.39-17ZM352.86,94c-.46-1.21-.89-2.44-1.3-3.69s-.8-2.5-1.18-3.79v29.88h-2.91V84h4.84L359,102.36c.51,1.47,1,2.86,1.42,4.19s.84,2.63,1.2,3.89c-.09-1-.15-2-.19-3s-.07-2.39-.07-4.12V84h2.91v32.4H361Zm-19.69-7.62c-1.87,0-3.25,1-4.12,3.15s-1.32,5.4-1.32,9.89q0,7.74,1.29,11.15t4.15,3.41c1.87,0,3.23-1.1,4.1-3.29s1.31-5.69,1.31-10.5-.44-8.28-1.31-10.5S335,86.37,333.17,86.37Zm0,30.65a7.17,7.17,0,0,1-6.67-4.28c-1.51-2.86-2.26-7-2.26-12.57s.75-9.73,2.26-12.56a7.36,7.36,0,0,1,13.34,0q2.28,4.26,2.28,12.55c0,5.53-.76,9.71-2.28,12.57S336.1,117,333.17,117Zm-17.69-.63V84h3.32v32.4Zm-13.77,0V86.77h-6.5V84h16.27v2.78H305v29.62Zm-25.39,0,7-32.4h4.58l7.08,32.4h-3.5l-1.88-9.54h-8.15l-1.89,9.54Zm5.86-12.59H289l-3.4-17ZM260.81,94c-.46-1.21-.88-2.44-1.29-3.69s-.8-2.5-1.18-3.79v29.88h-2.91V84h4.83l6.7,18.37c.5,1.47,1,2.86,1.41,4.19s.84,2.63,1.21,3.89c-.09-1-.15-2-.2-3s-.06-2.39-.06-4.12V84h2.91v32.4H269Zm-26.95,22.4V84h5.9q5.27,0,7.86,2.12t2.59,6.39a8.9,8.9,0,0,1-1.31,5,7,7,0,0,1-3.8,2.79l5.29,16.13h-3.58L241.92,101l-2.07.06-1.38,0h-1.29v15.32Zm3.32-18.24H240a7.61,7.61,0,0,0,5-1.41,6.23,6.23,0,0,0,0-8.47,7.58,7.58,0,0,0-5-1.41h-2.82Zm-22.56,18.24V84h14.56v3H217.93V98.15h8.25v3h-8.25v12.28h11.65v3Zm-13.69,0V86.77h-6.49V84H210.7v2.78h-6.49v29.62ZM179.11,94c-.46-1.21-.88-2.44-1.29-3.69s-.8-2.5-1.19-3.79v29.88h-2.91V84h4.84l6.69,18.37c.51,1.47,1,2.86,1.42,4.19s.84,2.63,1.2,3.89c-.09-1-.15-2-.19-3s-.07-2.39-.07-4.12V84h2.91v32.4h-3.26Zm-15.27,22.4V84h3.32v32.4Z"></path><path class="cls-3" d="M71.93,135c20.34-8.29,35.16-30.21,35.16-64.2S92.27,14.89,71.93,6.6a64.21,64.21,0,0,1,0,128.4M68,70.8V135A64.21,64.21,0,0,1,68,6.65ZM70.8,1A69.8,69.8,0,1,1,1,70.8,69.94,69.94,0,0,1,70.8,1Z"></path></svg>